# xmcd CD database file
#
# Track frame offsets:
#	150
#	15152
#	31145
#	47472
#	62282
#	77158
#	94581
#	113143
#	130607
#	143337
#	163098
#	178870
#
# Disc length: 2743 seconds
#
# Revision: 2
# Processed by: cddbd v1.5.2PL0 Copyright (c) Steve Scherf et al.
# Submitted via: CDex 1.51
#
DISCID=810ab50c
DTITLE=Melissa Etheridge - 4 TH Street Feeling
DYEAR=2012
DGENRE=Country
TTITLE0=Kansas City
TTITLE1=4TH Street Feeling
TTITLE2=Falling Up
TTITLE3=Shout Now
TTITLE4=The Shadow Of A Black Crow
TTITLE5=Be Real
TTITLE6=A Disaster
TTITLE7=Sympathy
TTITLE8=Enough Rain
TTITLE9=A Sacred Heart
TTITLE10=I Can Wait
TTITLE11=Rock And Roll Me
EXTD=YEAR: 2012
EXTT0=
EXTT1=
EXTT2=
EXTT3=
EXTT4=
EXTT5=
EXTT6=
EXTT7=
EXTT8=
EXTT9=
EXTT10=
EXTT11=
PLAYORDER=
